<?xml version="1.0" encoding="UTF-8" standalone="no"?>
<svg xmlns="http://www.w3.org/2000/svg" width="115" height="50">
  <g stroke-width="2.4">
    <path fill="#fed6d7" stroke="#dd0478"
       d="m 18.705685,48.300133 q -4.71875,0 -8.3125,-2.09375 -3.5624996,-2.09375 -5.5312496,-5.9375 -1.96875,-3.84375 -1.96875,-8.90625 v -12.46875 q 0,-5.0625 1.96875,-8.9062502 1.96875,-3.84375 5.5312496,-5.9375 3.59375,-2.125 8.3125,-2.125 3.90625,0 7.1875,1.6875 3.28125,1.65625 5.46875,4.71875 2.21875,3.0625002 3,7.0937502 v 0 h -6.53125 v 0 q -0.59375,-2.125 -2,-3.78125 -1.375,-1.6875002 -3.25,-2.5937502 -1.875,-0.90625 -3.875,-0.90625 -2.78125,0 -4.875,1.34375 -2.09375,1.3437502 -3.25,3.7812502 -1.1562496,2.40625 -1.1562496,5.625 v 12.46875 q 0,3.1875 1.1562496,5.625 1.15625,2.4375 3.25,3.78125 2.09375,1.3125 4.875,1.3125 2.03125,0 3.875,-0.84375 1.875,-0.84375 3.25,-2.5 1.40625,-1.65625 2,-3.9375 v 0 h 6.53125 v 0 q -0.78125,4.03125 -3,7.09375 -2.21875,3.0625 -5.5,4.75 -3.28125,1.65625 -7.15625,1.65625 z"/>
    <path
       fill="#dcf8db" stroke="#35a152"
       d="m 57.685346,48.605548 c -2.092971,0 -4.076308,-0.210828 -5.950011,-0.632484 -1.873704,-0.421616 -3.62781,-1.0541 -5.26232,-1.897411 -1.614576,-0.843272 -4.544731,-3.162339 -4.544731,-3.162339 v 0 l 3.797243,-4.933294 v 0 c 0,0 3.478313,2.656393 5.471617,3.415373 1.993304,0.758941 4.156038,1.138431 6.488202,1.138431 3.149419,0 5.591213,-0.6114 7.32539,-1.834162 1.73417,-1.243845 2.601258,-2.993678 2.601258,-5.249497 v -0.03158 c 0,-3.05247 -0.398661,-2.867221 -1.195982,-3.794863 -0.777388,-0.948686 -1.793973,-1.644418 -3.049752,-2.087156 -1.235849,-0.463782 -2.840459,-0.885438 -4.813826,-1.264928 -0.0598,-0.01974 -0.129567,-0.03158 -0.2093,-0.03158 -0.0598,0 -0.119601,-0.01184 -0.179401,-0.03158 l -0.448494,-0.09475 c -2.910226,-0.52707 -5.282257,-1.117388 -7.116094,-1.770915 -1.813907,-0.674649 -3.368683,-1.886869 -4.664328,-3.636701 -1.29565,-1.770914 -1.94347,-2.311436 -1.94347,-7.526435 v -0.03158 c 0,-2.846136 0.597991,-5.2705775 1.793973,-7.2734025 1.215916,-2.0239077 2.979989,-3.562951 5.29222,-4.6170507 2.312231,-1.0540998 5.092885,-1.5811694 8.341972,-1.5811694 1.554776,0 3.079652,0.1792432 4.574632,0.537611 1.514909,0.3584863 2.999918,0.8959789 4.455031,1.6127936 1.475043,0.6956924 4.335435,2.6563518 4.335435,2.6563518 v 0 l -3.468347,5.1230372 v 0 c 0,0 -3.308886,-2.2452767 -4.963326,-2.8777602 -1.634509,-0.6535268 -3.278982,-0.98031 -4.933425,-0.98031 -2.970023,0 -5.282253,0.6324835 -6.936693,1.8974111 -1.63451,1.2438451 -2.451765,3.0147591 -2.451765,5.3127431 v 0.03158 c 0,2.485528 0.418594,2.825053 1.255783,3.731613 0.857118,0.90652 1.91357,1.581169 3.169352,2.023908 1.275713,0.421616 3.039786,0.864354 5.29222,1.328176 0.07973,0.01974 0.149501,0.04224 0.209301,0.06317 0.07973,0 0.159467,0.01184 0.239201,0.03158 0.09967,0.01974 0.209301,0.04224 0.328901,0.06317 0.119601,0.01974 0.229234,0.04224 0.328901,0.06317 2.631158,0.569196 4.823793,1.243845 6.577899,2.023908 1.77404,0.780024 3.249086,2.044991 4.425135,3.794822 1.195979,1.728749 1.79397,1.465507 1.79397,7.115323 v 0.06317 c 0,2.803971 -0.627891,5.207331 -1.88367,7.210156 -1.255783,1.981742 -3.079652,3.499702 -5.471617,4.553802 -2.372031,1.033017 -5.24239,1.549545 -8.611069,1.549545 z"/>
    <path
       fill="#d8e3f8" stroke="#4b70ed"
       d="m 89.194663,48.112116 -6.099885,0.01974 V 2.1508545 H 110.42122 V 8.2878398 H 89.194525 V 22.644821 h 17.969425 v 6.134932 H 89.194525 Z"/>
  </g>
</svg>
