<svg width="250" height="50" xmlns="http://www.w3.org/2000/svg">
<title>JWS-JCS Logotype</title>
<g stroke-width="2.6" stroke="#2a53ea" fill="#c3d5f4">
<path d="m 13.69825,46.738287 c -2.265625,0 -4.3457047,-0.458984 -6.2402357,-1.376953 -1.894531,-0.917969 -3.437499,-2.207031 -4.628906,-3.867188 l 4.892578,-3.515625 c 0.546875,0.957031 1.337891,1.699219 2.3730467,2.226563 1.035158,0.527344 2.23633,0.791016 3.603517,0.791016 2.324219,0 4.121094,-0.722656 5.390625,-2.167969 1.289063,-1.445313 1.933594,-3.476563 1.933594,-6.09375 V 3.701178 h 5.976562 v 29.0625 c 0,2.949219 -0.517578,5.46875 -1.552734,7.558593 -1.035157,2.089844 -2.548829,3.681641 -4.541016,4.775391 -1.992187,1.09375 -4.394531,1.640625 -7.207031,1.640625 z"/>
<path d="m 55.651375,3.701178 h 4.101562 L 68.483406,37.099615 76.012703,3.701178 H 82.22364 L 71.82325,46.298834 H 65.7295 L 57.877937,16.533209 49.674812,46.298834 h -6.09375 L 33.180672,3.701178 h 6.210937 l 7.529297,33.398437 z"/>
<path d="m 100.65137,46.738287 c -2.050774,0 -3.994134,-0.195312 -5.830074,-0.585937 -1.83594,-0.390625 -3.554686,-0.976563 -5.156253,-1.757813 -1.582029,-0.78125 -3.066402,-1.757812 -4.453121,-2.929687 v 0 l 3.720703,-4.570313 v 0 c 1.621092,1.40625 3.408201,2.460938 5.361331,3.164063 1.95312,0.703125 4.07226,1.054687 6.357414,1.054687 3.08594,0 5.47852,-0.566406 7.17774,-1.699219 1.69921,-1.152343 2.54882,-2.773437 2.54882,-4.863281 v -0.0293 c 0,-1.484375 -0.39063,-2.65625 -1.17187,-3.515625 -0.76172,-0.878906 -1.75782,-1.523437 -2.98828,-1.933594 -1.21094,-0.429687 -2.78321,-0.820312 -4.7168,-1.171875 -0.0586,-0.01953 -0.12696,-0.0293 -0.20508,-0.0293 -0.0586,0 -0.1172,-0.0098 -0.17578,-0.0293 l -0.43945,-0.08789 c -2.851554,-0.488281 -5.175774,-1.035156 -6.972654,-1.640625 -1.77734,-0.625 -3.30078,-1.748047 -4.570313,-3.369141 -1.269531,-1.640625 -1.904297,-3.964843 -1.904297,-6.972656 v -0.0293 c 0,-2.636719 0.585939,-4.882812 1.757817,-6.738281 1.191407,-1.875 2.919923,-3.300781 5.185543,-4.277344 2.26562,-0.976562 4.99023,-1.464843 8.173824,-1.464843 1.52344,0 3.01758,0.1660153 4.48242,0.498046 1.48438,0.3320313 2.93946,0.8300783 4.36524,1.494141 1.44531,0.644531 2.86132,1.464844 4.24804,2.460938 v 0 l -3.39843,4.746093 v 0 c -1.6211,-1.191406 -3.24219,-2.080078 -4.86328,-2.666015 -1.60157,-0.605469 -3.2129,-0.908203 -4.83399,-0.908203 -2.910154,0 -5.175774,0.585937 -6.796864,1.757812 -1.60157,1.152344 -2.40235,2.792969 -2.40235,4.921875 v 0.0293 c 0,1.464844 0.41015,2.617188 1.23047,3.457031 0.83984,0.839844 1.875,1.464844 3.10547,1.875 1.25,0.390625 2.978504,0.800782 5.185544,1.230469 0.0781,0.01953 0.14647,0.03906 0.20507,0.05859 0.0781,0 0.15625,0.0098 0.23438,0.0293 0.0977,0.01953 0.20507,0.03906 0.32227,0.05859 0.11718,0.01953 0.2246,0.03906 0.32226,0.05859 2.57812,0.527344 4.72656,1.152344 6.44531,1.875 1.73828,0.722656 3.1836,1.894531 4.33594,3.515625 1.17187,1.601563 1.75781,3.798828 1.75781,6.591797 v 0.05859 c 0,2.597656 -0.61524,4.824218 -1.8457,6.679687 -1.23047,1.835937 -3.01758,3.242187 -5.36133,4.21875 -2.32422,0.957031 -5.13672,1.435547 -8.4375,1.435547 z"/>
</g>
<g stroke-width="2.6" stroke="#dd0478" fill="#f2e1e9">
<path d="m 157.69825,46.738287 c -2.26563,0 -4.34571,-0.458984 -6.24024,-1.376953 -1.89453,-0.917969 -3.4375,-2.207031 -4.6289,-3.867188 l 4.89257,-3.515625 c 0.54688,0.957031 1.33789,1.699219 2.37305,2.226563 1.03516,0.527344 2.23633,0.791016 3.60352,0.791016 2.32421,0 4.12108,-0.722656 5.39062,-2.167969 1.28906,-1.445313 1.9336,-3.476563 1.9336,-6.09375 V 3.701178 h 5.97656 v 29.0625 c 0,2.949219 -0.51758,5.46875 -1.55274,7.558593 -1.03516,2.089844 -2.54883,3.681641 -4.54101,4.775391 -1.99219,1.09375 -4.39453,1.640625 -7.20703,1.640625 z"/>
<path d="m 195.52051,46.738287 c -2.94922,0 -5.54688,-0.654297 -7.79297,-1.962891 -2.22656,-1.308593 -3.95508,-3.164062 -5.18554,-5.566406 -1.23048,-2.402343 -1.84571,-5.185546 -1.84571,-8.349609 V 19.169928 c 0,-3.164063 0.61523,-5.947266 1.84571,-8.34961 1.23046,-2.402343 2.95898,-4.257812 5.18554,-5.566406 2.24609,-1.3281247 4.84375,-1.992187 7.79297,-1.992187 2.4414,0 4.6875,0.5273437 6.73828,1.582031 2.05078,1.035156 3.75977,2.509765 5.12696,4.423828 1.38671,1.914063 2.32421,4.13086 2.8125,6.650391 v 0 h -6.12305 v 0 c -0.3711,-1.328125 -0.9961,-2.509766 -1.875,-3.544922 -0.85938,-1.054688 -1.875,-1.865235 -3.04688,-2.431641 -1.17188,-0.566406 -2.38281,-0.849609 -3.63281,-0.849609 -1.73828,0 -3.26172,0.419922 -4.57031,1.259765 -1.3086,0.839844 -2.32422,2.021485 -3.04688,3.544922 -0.72266,1.503907 -1.08398,3.261719 -1.08398,5.273438 v 11.689453 c 0,1.992187 0.36132,3.75 1.08398,5.273437 0.72266,1.523438 1.73828,2.705079 3.04688,3.544922 1.30859,0.820313 2.83203,1.230469 4.57031,1.230469 1.26953,0 2.48047,-0.263672 3.63281,-0.791016 1.17188,-0.527343 2.1875,-1.308593 3.04688,-2.34375 0.8789,-1.035156 1.5039,-2.265625 1.875,-3.691406 v 0 h 6.12305 v 0 c -0.48829,2.519531 -1.42579,4.736328 -2.8125,6.650391 -1.38672,1.914062 -3.10547,3.398437 -5.15625,4.453125 -2.05079,1.035156 -4.28712,1.552734 -6.70899,1.552734 z"/>
<path d="m 231.52637,46.738287 c -2.05078,0 -3.99414,-0.195312 -5.83008,-0.585937 -1.83594,-0.390625 -3.55469,-0.976563 -5.15625,-1.757813 -1.58203,-0.78125 -3.0664,-1.757812 -4.45312,-2.929687 v 0 l 3.7207,-4.570313 v 0 c 1.62109,1.40625 3.4082,2.460938 5.36133,3.164063 1.95312,0.703125 4.07226,1.054687 6.35742,1.054687 3.08594,0 5.47852,-0.566406 7.17774,-1.699219 1.69921,-1.152343 2.54882,-2.773437 2.54882,-4.863281 v -0.0293 c 0,-1.484375 -0.39063,-2.65625 -1.17187,-3.515625 -0.76172,-0.878906 -1.75782,-1.523437 -2.98828,-1.933594 -1.21094,-0.429687 -2.78321,-0.820312 -4.7168,-1.171875 -0.0586,-0.01953 -0.12696,-0.0293 -0.20508,-0.0293 -0.0586,0 -0.1172,-0.0098 -0.17578,-0.0293 l -0.43945,-0.08789 c -2.85157,-0.488281 -5.17579,-1.035156 -6.97266,-1.640625 -1.77734,-0.625 -3.30078,-1.748047 -4.57031,-3.369141 -1.26954,-1.640625 -1.9043,-3.964843 -1.9043,-6.972656 v -0.0293 c 0,-2.636719 0.58594,-4.882812 1.75782,-6.738281 1.1914,-1.875 2.91991,-3.300781 5.18554,-4.277344 2.26562,-0.976562 4.99023,-1.464843 8.17383,-1.464843 1.52344,0 3.01758,0.1660153 4.48242,0.498046 1.48437,0.3320313 2.93945,0.8300783 4.36524,1.494141 1.44531,0.644531 2.86131,1.464844 4.24804,2.460938 v 0 l -3.39843,4.746093 v 0 c -1.6211,-1.191406 -3.24219,-2.080078 -4.86329,-2.666015 -1.60156,-0.605469 -3.21289,-0.908203 -4.83398,-0.908203 -2.91016,0 -5.17578,0.585937 -6.79687,1.757812 -1.60157,1.152344 -2.40235,2.792969 -2.40235,4.921875 v 0.0293 c 0,1.464844 0.41015,2.617188 1.23047,3.457031 0.83984,0.839844 1.875,1.464844 3.10547,1.875 1.25,0.390625 2.97851,0.800782 5.18555,1.230469 0.0781,0.01953 0.14647,0.03906 0.20507,0.05859 0.0781,0 0.15625,0.0098 0.23438,0.0293 0.0977,0.01953 0.20507,0.03906 0.32226,0.05859 0.11719,0.01953 0.22461,0.03906 0.32227,0.05859 2.57812,0.527344 4.72656,1.152344 6.4453,1.875 1.73828,0.722656 3.18359,1.894531 4.33594,3.515625 1.17187,1.601563 1.75781,3.798828 1.75781,6.591797 v 0.05859 c 0,2.597656 -0.61524,4.824218 -1.8457,6.679687 -1.23047,1.835937 -3.01758,3.242187 -5.36133,4.21875 -2.32423,0.957031 -5.13673,1.435547 -8.4375,1.435547 z"/>
</g>
<circle cx="134" cy="23.5" r="6" fill="#f0ffe5" stroke="#2ca05a" stroke-width="3"/>
</svg>
