<?xml version="1.0" encoding="UTF-8" standalone="no"?>
<svg width="146" height="56" version="1.1" xmlns="http://www.w3.org/2000/svg">
<title>CBOR::Core Logotype</title>
<defs>
   <filter id="shadow">
   <feDropShadow dx="1" dy="1" stdDeviation="1" flood-opacity="0.5"/>
   </filter>
</defs>
<g filter="url(#shadow)">
  <g
     fill="#e1e3fd"
     stroke="#5d5dff"
     stroke-width="1.5">
    <path d="m 24.458333,23.08073 q -0.527343,4.511719 -3.339843,6.972657 -2.792969,2.441406 -7.441407,2.441406 -5.0390622,0 -8.0859372,-3.613281 Q 2.5638021,25.26823 2.5638021,19.213543 v -2.734375 q 0,-3.964844 1.40625,-6.9726563 1.4257812,-3.0078125 4.0234375,-4.609375 2.5976564,-1.6210938 6.0156254,-1.6210938 4.53125,0 7.265625,2.5390625 2.734375,2.5195313 3.183593,6.9921876 H 20.688802 Q 20.200521,9.4088554 18.559896,7.8854179 16.938802,6.3619804 14.009115,6.3619804 q -3.59375,0 -5.6445317,2.65625 -2.03125,2.6562496 -2.03125,7.5585936 v 2.753906 q 0,4.628907 1.9335938,7.363282 1.9335939,2.734375 5.4101559,2.734375 3.125,0 4.785157,-1.40625 1.679687,-1.425782 2.226562,-4.941407 z"/>
    <path d="M 29.575521,32.104168 V 3.6666679 h 9.296875 q 4.628906,0 6.953125,1.9140625 2.34375,1.9140625 2.34375,5.6640626 0,1.992187 -1.132813,3.535156 -1.132812,1.523438 -3.085937,2.363281 2.304687,0.644532 3.632812,2.460938 1.347657,1.796875 1.347657,4.296875 0,3.828125 -2.480469,6.015625 -2.480469,2.1875 -7.011719,2.1875 z m 3.75,-13.300781 v 10.234375 h 6.191406 q 2.617188,0 4.121094,-1.347657 1.523437,-1.367187 1.523437,-3.75 0,-5.136718 -5.585937,-5.136718 z m 0,-3.007813 h 5.664062 q 2.460938,0 3.925782,-1.230469 1.484375,-1.230468 1.484375,-3.339843 0,-2.3437503 -1.367188,-3.3984378 -1.367187,-1.0742188 -4.160156,-1.0742188 h -5.546875 z"/>
    <path d="m 76.352865,18.803387 q 0,4.179687 -1.40625,7.304687 -1.40625,3.105469 -3.984375,4.746094 -2.578125,1.640625 -6.015625,1.640625 -3.359375,0 -5.957032,-1.640625 -2.597656,-1.660156 -4.042968,-4.707031 -1.425782,-3.066407 -1.464844,-7.089844 v -2.050781 q 0,-4.101563 1.425781,-7.2460941 1.425781,-3.1445312 4.023438,-4.8046875 2.617187,-1.6796875 5.976562,-1.6796875 3.417969,0 6.015625,1.6601563 2.617188,1.640625 4.023438,4.7851562 1.40625,3.1249996 1.40625,7.2851566 z m -3.730469,-1.835938 q 0,-5.058594 -2.03125,-7.7539061 -2.03125,-2.7148437 -5.683594,-2.7148437 -3.554687,0 -5.605469,2.7148437 -2.03125,2.6953121 -2.089843,7.5000001 v 2.089844 q 0,4.902343 2.050781,7.714843 2.070312,2.792969 5.683594,2.792969 3.632812,0 5.625,-2.636719 1.992187,-2.65625 2.050781,-7.597656 z"/>
    <path d="M 92.407552,20.600262 H 85.727865 V 32.104168 H 81.958333 V 3.6666679 h 9.414063 q 4.804687,0 7.382812,2.1875 2.597652,2.1875 2.597652,6.3671871 0,2.65625 -1.445308,4.628907 -1.425781,1.972656 -3.984375,2.949218 l 6.679683,12.070313 v 0.234375 h -4.023433 z m -6.679687,-3.066407 h 5.761718 q 2.792969,0 4.433594,-1.445312 1.660156,-1.445313 1.660156,-3.867188 0,-2.6367183 -1.582031,-4.0429683 -1.5625,-1.40625 -4.53125,-1.4257813 h -5.742187 z"/>
  </g>
</g>
<line stroke="black" stroke-width="0.6" x1="1.7747796" y1="39.644275" x2="103.65917" y2="39.644275"/>
<g>
   <path d="m 16.655598,52.480648 q -0.401043,0.213543 -0.822919,0.31771 -0.421877,0.109375 -0.895837,0.109375 -1.494796,0 -2.322924,-1.057295 -0.822919,-1.057295 -0.822919,-2.973968 0,-1.906256 0.828128,-2.968759 0.833336,-1.067712 2.317715,-1.067712 0.47396,0 0.895837,0.109376 0.421876,0.104167 0.822919,0.317709 v 1.078128 q -0.385418,-0.317709 -0.828128,-0.484376 -0.442709,-0.166667 -0.890628,-0.166667 -1.026044,0 -1.536463,0.791669 -0.510418,0.791669 -0.510418,2.390632 0,1.593755 0.510418,2.385425 0.510419,0.791669 1.536463,0.791669 0.458335,0 0.895837,-0.166667 0.442709,-0.166668 0.822919,-0.484377 z"/>
   <path d="m 40.780596,48.87647 q 0,-1.713547 -0.354168,-2.447924 -0.348959,-0.734377 -1.151045,-0.734377 -0.796878,0 -1.151045,0.734377 -0.34896,0.734377 -0.34896,2.447924 0,1.708339 0.34896,2.442716 0.354167,0.734378 1.151045,0.734378 0.802086,0 1.151045,-0.729169 0.354168,-0.734378 0.354168,-2.447925 z m 1.098962,0 q 0,2.031257 -0.645836,3.03126 -0.640627,1.000003 -1.958339,1.000003 -1.317713,0 -1.95834,-0.994795 -0.640627,-0.994794 -0.640627,-3.036468 0,-2.036464 0.640627,-3.036468 0.645836,-1.000003 1.95834,-1.000003 1.317712,0 1.958339,1.000003 0.645836,1.000004 0.645836,3.036468 z"/>
   <path d="m 66.025385,49.084804 q 0.406252,0.104167 0.692711,0.395835 0.286459,0.286459 0.713544,1.151045 l 1.057295,2.125007 H 67.358723 L 66.431637,50.793143 Q 66.030594,49.954599 65.707676,49.715015 65.389967,49.470222 64.87434,49.470222 h -1.005211 v 3.286469 h -1.057295 v -7.776066 h 2.166673 q 1.281254,0 1.963548,0.578127 0.682294,0.578126 0.682294,1.67188 0,0.770836 -0.421877,1.260421 -0.416668,0.484376 -1.177087,0.593751 z m -2.156256,-3.239593 v 2.760425 h 1.151045 q 0.755211,0 1.125003,-0.338543 0.369793,-0.338542 0.369793,-1.036461 0,-0.671877 -0.395834,-1.026045 -0.390627,-0.359376 -1.140629,-0.359376 z"/>
   <path d="m 89.493221,44.980625 h 4.614598 v 0.885419 h -3.562511 v 2.394247 h 3.406261 v 0.885419 h -3.406261 v 2.725562 h 3.66147 v 0.885419 h -4.713557 z"/>
</g>
</svg>
